<?xml version="1.0" encoding="UTF-8" standalone="no"?>
<!-- Created with Inkscape (http://www.inkscape.org/) -->

<svg
   xmlns:dc="http://purl.org/dc/elements/1.1/"
   xmlns:cc="http://creativecommons.org/ns#"
   xmlns:rdf="http://www.w3.org/1999/02/22-rdf-syntax-ns#"
   xmlns:svg="http://www.w3.org/2000/svg"
   xmlns="http://www.w3.org/2000/svg"
   xmlns:sodipodi="http://sodipodi.sourceforge.net/DTD/sodipodi-0.dtd"
   xmlns:inkscape="http://www.inkscape.org/namespaces/inkscape"
   width="210mm"
   height="297mm"
   viewBox="0 0 210 297"
   version="1.1"
   id="svg8"
   inkscape:version="0.92.4 (5da689c313, 2019-01-14)"
   sodipodi:docname="OWL_teams_division_chart.svg">
  <defs
     id="defs2">
    <style
       id="style4557">
      .cls-1 {
        fill: #003768;
      }

      .cls-2 {
        fill: #fff;
      }

      .cls-3 {
        fill: #990034;
      }
    </style>
    <style
       id="style4608">
      .cls-1 {
        fill: #174b97;
      }
    </style>
    <style
       id="style4623">
      .cls-1 {
        fill: #323232;
      }

      .cls-2 {
        fill: #910f1b;
      }
    </style>
    <style
       id="style4668">
      .cls-1 {
        fill: #003768;
      }

      .cls-2 {
        fill: #fff;
      }

      .cls-3 {
        fill: #990034;
      }
    </style>
    <style
       id="style4719">
      .cls-1 {
        fill: #09226b;
      }

      .cls-2 {
        fill: #2fb228;
      }

      .cls-3 {
        fill: #fff;
      }
    </style>
    <style
       id="style4761">
      .cls-1 {
        fill: #e5d456;
      }
    </style>
    <style
       id="style4797">
      .cls-1 {
        fill: #d22630;
      }
    </style>
    <style
       id="style4821">
      .cls-1 {
        fill: #fc4c02;
      }
    </style>
    <style
       id="style4845">
      .cls-1 {
        fill: #fff;
      }

      .cls-2 {
        fill: #ac8a00;
      }
    </style>
    <style
       id="style4884">
      .cls-1 {
        fill: #f99d2a;
      }
    </style>
    <style
       id="style4914">
      .cls-1 {
        fill: #8d042d;
      }
    </style>
    <style
       id="style4953">
      .cls-1 {
        fill: #171c38;
      }

      .cls-2 {
        fill: #0f57ea;
      }
    </style>
    <style
       id="style4995">
      .cls-1 {
        fill: #1c2b39;
      }

      .cls-2 {
        fill: #59cbe8;
      }

      .cls-3 {
        fill: #ff8200;
      }

      .cls-4 {
        fill: #fff;
      }
    </style>
    <style
       id="style5082">
      .cls-1 {
        fill: #fb7299;
      }
    </style>
    <style
       id="style5097">
      .cls-1 {
        fill: #97d700;
      }
    </style>
    <style
       id="style5126">
      .cls-1 {
        fill: #67a2b2;
      }
    </style>
    <style
       id="style5147">
      .cls-1 {
        fill: #381460;
      }

      .cls-2 {
        fill: #fff;
      }
    </style>
    <style
       id="style5183">
      .cls-1 {
        fill: #af272f;
        fill-rule: evenodd;
      }
    </style>
    <style
       id="style5201">
      .cls-1 {
        fill: #0072ce;
      }
    </style>
    <style
       id="style5225">
      .cls-1 {
        fill: #161823;
      }

      .cls-2 {
        fill: #fff;
      }

      .cls-3 {
        fill: #b4926a;
      }
    </style>
  </defs>
  <sodipodi:namedview
     id="base"
     pagecolor="#ffffff"
     bordercolor="#666666"
     borderopacity="1.0"
     inkscape:pageopacity="0.0"
     inkscape:pageshadow="2"
     inkscape:zoom="0.24748737"
     inkscape:cx="515.41453"
     inkscape:cy="460.30631"
     inkscape:document-units="mm"
     inkscape:current-layer="layer1"
     showgrid="false"
     showguides="false"
     inkscape:window-width="754"
     inkscape:window-height="549"
     inkscape:window-x="100"
     inkscape:window-y="100"
     inkscape:window-maximized="0" />
  <metadata
     id="metadata5">
    <rdf:RDF>
      <cc:Work
         rdf:about="">
        <dc:format>image/svg+xml</dc:format>
        <dc:type
           rdf:resource="http://purl.org/dc/dcmitype/StillImage" />
        <dc:title></dc:title>
      </cc:Work>
    </rdf:RDF>
  </metadata>
  <g
     inkscape:label="Layer 1"
     inkscape:groupmode="layer"
     id="layer1">
    <rect
       id="rect3713-7"
       width="232.83333"
       height="319.22678"
       x="111.88095"
       y="-0.84526062"
       style="fill:#def1ff;fill-opacity:1;stroke-width:0.39382112" />
    <rect
       id="rect3713"
       width="232.83333"
       height="319.22678"
       x="-120.95238"
       y="-0.84523809"
       style="fill:#ffdede;fill-opacity:1;stroke-width:0.39382112" />
    <text
       xml:space="preserve"
       style="font-style:normal;font-weight:normal;font-size:10.58333302px;line-height:1.25;font-family:sans-serif;letter-spacing:0px;word-spacing:0px;fill:#000000;fill-opacity:1;stroke:none;stroke-width:0.26458332"
       x="33.261906"
       y="15.02976"
       id="text4537"><tspan
         sodipodi:role="line"
         id="tspan4535"
         x="33.261906"
         y="15.02976"
         style="stroke-width:0.26458332">PACIFIC</tspan></text>
    <text
       xml:space="preserve"
       style="font-style:normal;font-weight:normal;font-size:10.58333302px;line-height:1.25;font-family:sans-serif;letter-spacing:0px;word-spacing:0px;fill:#000000;fill-opacity:1;stroke:none;stroke-width:0.26458332"
       x="140.51044"
       y="14.341358"
       id="text4537-2"><tspan
         sodipodi:role="line"
         id="tspan4535-5"
         x="140.51044"
         y="14.341358"
         style="stroke-width:0.26458332">ATLANTIC</tspan></text>
    <path
       id="path4614"
       d="m 266.64143,73.681765 v 15.797094 l -6.15217,3.60514 -6.31198,-3.70007 V 75.641755 l -0.51434,-0.37313 h 7.59001 l 0.57682,0.52094 v 1.73407 l -2.90153,1.67698 v -2.6017 h -3.0169 v 11.815234 0.0655 l 4.58394,2.70685 4.37062,-2.50256 v -7.763054 l -1.25278,-1.13021 1.25278,-0.77211 v -4.56649 l -1.93055,-1.77193 h -13.17016 l 1.31047,1.00343 v 17.340704 l 9.41841,5.6901 9.20331,-5.52788 V 72.680145 h -4.25767 z m -4.80685,8.14279 0.0192,5.181194 -1.37476,0.7066 -1.54059,-0.83639 v -3.916384 l -0.40137,-0.0943 2.70385,-1.63372 0.59485,0.5594 z"
       class="cls-1"
       inkscape:connector-curvature="0"
       style="fill:#174b97;stroke-width:0.06008556" />
    <g
       id="g4649"
       transform="matrix(0.06008557,0,0,0.06008557,129.20134,286.81713)">
      <g
         id="g4639">
        <path
           id="path4629"
           d="m 250,33.58 c -4.4,11.28 -13,21.81 -21.7,25.68 6.4,2.8 13,12.16 13,20.76 0,8.6 -6.5,15.74 -14.53,15.74 -8.03,0 -14.54,-7 -14.54,-15.74 -20.62,0.74 -31.1,-10.8 -31.1,-10.8 l 28.28,46.07 c 7.32,-3 21.78,-6.45 38.79,-6.78 h 3.7 c 17,0.33 31.47,3.76 38.79,6.78 L 319,69.22 c 0,0 -10.5,11.54 -31.13,10.78 0,8.7 -6.5,15.74 -14.53,15.74 -8.03,0 -14.54,-7.02 -14.54,-15.74 0,-8.72 6.56,-18 13,-20.76 C 263.12,55.39 254.45,44.86 250,33.58 Z"
           class="cls-1"
           inkscape:connector-curvature="0"
           style="fill:#323232" />
        <path
           id="path4631"
           d="m 181.89,125.22 c 4.22,-1.21 9.15,-3 13.68,-4.71 l -8.1,-13.09 c -7.77,4.45 -32.82,9.56 -48.31,12 -20,3.07 -31.84,-10.76 -39.58,-39.11 -0.24,13.11 5.64,43.56 19,56.67 21.6,2.02 51.9,-8.48 63.31,-11.76 z"
           class="cls-1"
           inkscape:connector-curvature="0"
           style="fill:#323232" />
        <path
           id="path4633"
           d="m 200.72,425.66 c 0,0 -58.79,-32.88 -69,-39.88 -9.23,-6.31 -9.47,-10.92 -9.47,-16.51 0,-5.59 -1.43,-65.73 -1.46,-84.15 -3.84,-0.48 -17.5,-4 -17.5,-4 0,0 0,77.45 0,95.42 0,15.53 13.6,21.85 13.6,21.85 0,0 69.68,39.09 107.55,59.72 C 205.43,440 200.72,425.66 200.72,425.66 Z"
           class="cls-1"
           inkscape:connector-curvature="0"
           style="fill:#323232" />
        <path
           id="path4635"
           d="m 304.54,120.51 c 4.53,1.74 9.46,3.5 13.68,4.71 11.41,3.28 41.71,13.82 63.32,11.71 13.35,-13.11 19.23,-43.56 19,-56.67 -7.74,28.35 -19.63,42.18 -39.58,39.11 -15.49,-2.39 -40.54,-7.5 -48.31,-12 z"
           class="cls-1"
           inkscape:connector-curvature="0"
           style="fill:#323232" />
        <path
           id="path4637"
           d="m 377.87,369.27 c 0,5.59 -0.24,10.2 -9.47,16.51 -10.22,7 -69,39.88 -69,39.88 0,0 -4.71,14.35 -23.73,32.47 37.87,-20.63 107.55,-59.72 107.55,-59.72 0,0 13.6,-6.32 13.6,-21.85 0,-18 0.19,-95.42 0.19,-95.42 0,0 -13.83,3.5 -17.67,4 -0.04,18.4 -1.47,78.6 -1.47,84.13 z"
           class="cls-1"
           inkscape:connector-curvature="0"
           style="fill:#323232" />
      </g>
      <g
         id="g4647">
        <path
           id="path4641"
           d="m 58.78,107 c 0,0 3.09,-22.61 20.46,-40.7 C 90,53.69 90.73,44.63 88.3,39.86 85.87,35.09 80.43,31.15 73.83,29.31 c 7.58,7 7.48,12.27 3.36,18 -6.5,8.96 -35.52,31.05 -18.41,59.69 z"
           class="cls-2"
           inkscape:connector-curvature="0"
           style="fill:#910f1b" />
        <path
           id="path4643"
           d="m 441.22,107 c 0,0 -3.09,-22.61 -20.46,-40.7 C 410,53.69 409.27,44.63 411.7,39.86 c 2.43,-4.77 7.87,-8.71 14.47,-10.55 -7.58,7 -7.48,12.27 -3.36,18 6.5,8.96 35.52,31.05 18.41,59.69 z"
           class="cls-2"
           inkscape:connector-curvature="0"
           style="fill:#910f1b" />
        <path
           id="path4645"
           d="m 343.21,245 c 0,0 43.41,23.11 93.22,-15.36 -5.17,19.54 -33.31,42.66 -68.43,42.66 -22.55,0 -36.36,-9.26 -52.43,-12.08 -11.91,-2.09 -26.07,-1.2 -27.35,9.72 -1.84,15.69 16.56,20.91 32.79,17.41 -4.56,7.91 -36.8,20.22 -50.18,6.54 -0.15,20.37 8.06,76 55.5,72.53 5.32,8.06 14.3,15.36 22.66,17.95 -8.36,5.47 -27.37,15.51 -27.37,15.51 0,0 -45.62,-10 -55.81,-65.69 0,49.26 13.69,81.8 23.12,86.52 -1.83,6.39 -8.2,14.61 -13.84,20.53 C 269.59,447 251,461 250,470.69 c -1,-9.65 -19.59,-23.74 -25.09,-29.5 -5.64,-5.92 -12,-14.14 -13.84,-20.53 9.43,-4.72 23.12,-37.26 23.12,-86.52 -10.19,55.65 -55.81,65.69 -55.81,65.69 0,0 -19,-10 -27.37,-15.51 8.36,-2.59 17.34,-9.89 22.66,-17.95 47.44,3.5 55.65,-52.16 55.5,-72.53 -13.38,13.68 -45.62,1.37 -50.18,-6.54 16.23,3.5 34.63,-1.72 32.79,-17.41 -1.28,-10.92 -15.44,-11.81 -27.35,-9.72 -16.07,2.83 -29.88,12.08 -52.43,12.08 -35.12,0 -63.25,-23.12 -68.42,-42.66 49.8,38.47 93.21,15.36 93.21,15.36 0,0 -86,17.58 -113.08,-61.48 C 31.2,146.91 55,113.93 47.91,109.62 57.7,110.05 58,128.11 58.2,140 a 46.47,46.47 0 0 0 14,33.26 c 0,0 -27.85,-55.92 15.55,-103.26 0,0 -0.09,47.12 17.87,70.79 41.92,55.24 53.59,27.74 88,57.86 0,0 -8.75,-9.05 -7.5,-18.45 7.5,16.42 28.38,20.68 37.91,20.68 h 5.67 c 5.31,-0.41 8.92,-4 8.84,-14.66 -0.08,-9.45 1.45,-14.78 1.45,-14.78 0,0 -2.93,10.61 -9.32,13.49 -5,2.28 -9.82,-0.41 -10.31,-4.29 3.64,1.46 8.88,1.92 11.63,-5.33 3.5,-9.18 10.91,-29.31 13.81,-32 1.22,-1.45 3.4,0.48 3.4,0.48 0,0 -1.7,-16.47 11.14,-14.53 -3.39,2.18 -3.63,7.27 -3.63,15.5 1.69,-4.6 6.05,-6.78 9.21,-6.3 -4.37,2.18 -5.34,10.42 -5.34,18.9 0,8.48 -0.79,26.44 11.15,40 a 11.28,11.28 0 0 1 -8,-5.81 c 0,0 -0.42,9.21 8.67,9.33 h 3.6 c 9.53,0 30.41,-4.26 37.91,-20.68 1.25,9.4 -7.5,18.45 -7.5,18.45 34.38,-30.12 46,-2.62 88,-57.86 18,-23.67 17.87,-70.79 17.87,-70.79 43.4,47.34 15.51,103.25 15.51,103.25 a 46.47,46.47 0 0 0 14,-33.26 c 0.19,-11.88 0.5,-29.94 10.29,-30.37 -7,4.31 16.71,37.29 4.2,73.85 C 429.24,262.53 343.21,245 343.21,245 Z m -90.65,-92.41 -4.12,-4.61 v 11.39 z"
           class="cls-2"
           inkscape:connector-curvature="0"
           style="fill:#910f1b" />
      </g>
    </g>
    <g
       id="g4698"
       transform="matrix(0.06008557,0,0,0.06008557,241.36992,268.80197)">
      <path
         id="path4674"
         d="m 251.94,38 -1.72,-0.45 -198.61,52 0.49,5.7 c 7.9,91.28 32.9,217.98 107.55,303.04 45.27,51.57 87,63.26 88.81,63.74 l 1.76,0.47 1.78,-0.5 c 1.75,-0.47 43.42,-12.16 88.59,-63.73 C 415.07,313.2 440.06,186.5 447.91,95.2 l 0.49,-5.7 z"
         class="cls-1"
         inkscape:connector-curvature="0"
         style="fill:#003768" />
      <path
         id="path4676"
         d="m 59.21,94.78 c 27.21,316.83 190.85,361 190.85,361 0,0 164.07,-44.16 191.28,-361 L 250.06,44.65 Z"
         class="cls-2"
         inkscape:connector-curvature="0"
         style="fill:#ffffff" />
      <path
         id="path4678"
         d="m 250.09,440.54 c 0,0 -136.32,-34.65 -159.04,-324.54 L 250.05,72.72 409.5,116 C 387.84,404.91 250.09,440.54 250.09,440.54 Z"
         class="cls-3"
         inkscape:connector-curvature="0"
         style="fill:#990034" />
      <path
         id="path4680"
         d="m 250.06,91.55 137.78,38.86 q -1.9,25.41 -5,47.91 c -14,11.27 -72.95,58.42 -132.76,58.42 -57.5,0 -114.23,-43.76 -130.94,-57 q -3.25,-23.17 -5.35,-49.37 z"
         class="cls-1"
         inkscape:connector-curvature="0"
         style="fill:#003768" />
      <path
         id="path4682"
         d="m 250.06,236.74 c 59.81,0 118.8,-47.15 132.76,-58.42 q -1.6,11.76 -3.5,22.78 c -9.45,7.89 -68.92,57.13 -129.26,57.13 -57.14,0 -113.48,-44.32 -127.34,-55.55 q -1.93,-11.07 -3.6,-22.9 c 16.71,13.22 73.44,56.96 130.94,56.96 z"
         class="cls-2"
         inkscape:connector-curvature="0"
         style="fill:#ffffff" />
      <path
         id="path4684"
         d="m 250.06,272.89 c 56.94,0 113.1,-47.68 127.19,-60.38 q -3.06,16.05 -6.69,30.47 c -23.78,18.79 -71.87,51.22 -120.5,51.22 -47.28,0 -94,-30.64 -118.46,-49.62 q -3.61,-14.34 -6.73,-30.29 c 16.82,14.8 70.65,58.6 125.19,58.6 z"
         class="cls-2"
         inkscape:connector-curvature="0"
         style="fill:#ffffff" />
      <path
         id="path4686"
         d="m 348.16,309.82 v -34.06 c 6.18,-4.07 11.78,-8.07 16.65,-11.75 a 393.21,393.21 0 0 1 -16.65,45.81 z"
         class="cls-2"
         inkscape:connector-curvature="0"
         style="fill:#ffffff" />
      <path
         id="path4688"
         d="m 330.42,344.24 a 233.2,233.2 0 0 1 -17.55,25.29 v -74.07 c 6.09,-2.78 12,-5.8 17.55,-8.91 z"
         class="cls-2"
         inkscape:connector-curvature="0"
         style="fill:#ffffff" />
      <path
         id="path4690"
         d="m 152.72,308.27 a 402.5,402.5 0 0 1 -15.35,-42.71 c 4.58,3.4 9.73,7 15.35,10.7 z"
         class="cls-2"
         inkscape:connector-curvature="0"
         style="fill:#ffffff" />
      <path
         id="path4692"
         d="M 187.25,368.36 A 236.24,236.24 0 0 1 169.7,342.23 v -55.68 c 5.58,3.11 11.45,6.13 17.55,8.91 z"
         class="cls-2"
         inkscape:connector-curvature="0"
         style="fill:#ffffff" />
      <polygon
         id="polygon4694"
         points="250.06,121.31 260.85,154.53 295.77,154.53 267.52,175.05 278.31,208.26 250.06,187.74 221.81,208.26 232.6,175.05 204.35,154.53 239.27,154.53 "
         class="cls-2"
         style="fill:#ffffff" />
      <path
         id="path4696"
         d="m 222.27,307.57 v 77 a 135.45,135.45 0 0 0 15.92,9.43 c 0.54,-12.1 3.23,-75.37 3.23,-75.37 l 8.64,-9 8.64,9 c 0,0 2.64,63.27 3.18,75.37 a 135.45,135.45 0 0 0 15.92,-9.44 v -77 c 3.82,-0.54 17.58,-5.05 17.58,-5.05 v 86.17 c -23.22,21.95 -42.57,27.72 -45.34,28.46 -2.78,-0.74 -22.13,-6.51 -45.35,-28.46 v -86.16 c 0,0 13.76,4.48 17.58,5.05 z"
         class="cls-2"
         inkscape:connector-curvature="0"
         style="fill:#ffffff" />
    </g>
    <g
       id="g4743"
       transform="matrix(0.06008557,0,0,0.06008557,307.13144,186.8872)"
       inkscape:transform-center-x="1.3977932"
       inkscape:transform-center-y="13.977937">
      <g
         id="g4737">
        <path
           id="path4725"
           d="m 382.1,269.25 c 11.2,5.1 31.4,7.2 31.4,7.2 0,0 -15.2,-15.9 -14.4,-25.6 0.8,-9.7 -2.2,-22.7 -2.2,-22.7 l 22,8.3 c 0,0 -24.2,-24.6 -30.7,-45.9 -6.5,-21.3 -17.3,-53.4 -42.6,-69.7 -14.8,-27.4 -35,-54.2 -35,-54.2 l -26.9,-19.1 -8.5,12.6 -25.2,-31.4 -25.3,31.4 -8.5,-12.6 -26.9,19.1 c 0,0 -20.2,26.7 -35,54.2 -25.3,16.2 -36.1,48.4 -42.6,69.7 -6.5,21.3 -30.7,45.9 -30.7,45.9 l 22,-8.3 c 0,0 -2.9,13 -2.2,22.7 0.7,9.7 -14.4,25.6 -14.4,25.6 0,0 20.2,-2.2 31.4,-7.2 -4,6.5 -22,20.9 -48,15.5 6.9,9.4 31.8,14.1 45.1,8.7 -9,11.2 0,44.8 0,49.8 0,5 0.4,15.5 -13,26 20.9,10.8 44.8,-9 44.8,-9 0,0 5.4,19.1 5.4,24.2 0,5.1 -2.9,6.1 0,22.4 a 71,71 0 0 0 12.3,28.2 l 19.5,9 c 0,0 -2.2,-18.8 3.2,-23.1 4,11.2 14.1,24.6 14.1,24.6 0,0 18.8,14.1 31.8,21.7 -6.5,-7.9 -11,-30 -11,-30 l 28,30 28,-30 c 0,0 -4.5,22 -11,30 13,-7.6 31.8,-21.7 31.8,-21.7 0,0 10.1,-13.4 14.1,-24.6 5.4,4.3 3.2,23.1 3.2,23.1 l 19.5,-9 a 70.16,70.16 0 0 0 12.3,-28.2 c 2.9,-16.2 0,-17.3 0,-22.4 0,-5.1 5.4,-24.2 5.4,-24.2 0,0 23.8,19.9 44.8,9 -13.4,-10.5 -13,-20.9 -13,-26 0,-5.1 9,-38.6 0,-49.8 13.4,5.4 38.3,0.7 45.1,-8.7 -26,5.4 -44.1,-9 -48.1,-15.5 z"
           class="cls-1"
           inkscape:connector-curvature="0"
           style="fill:#09226b" />
        <path
           id="path4727"
           d="m 378.9,209.65 c -9.4,-24.2 -32.9,-44.4 -32.9,-44.4 l -21.7,-26.4 -42.2,18.4 32.5,-30.7 L 286.8,83.25 273.1,106 250,66.65 l -23.1,39.4 -13.7,-22.7 -27.8,43.3 32.5,30.7 L 175.7,139 154,165.35 c 0,0 -23.5,20.2 -32.9,44.4 10.5,-6.1 13.4,-8.3 13.4,-8.3 l -9.4,56.7 44,-44.8 15.5,-33.2 50.9,22.7 h 28.9 l 50.9,-22.7 15.5,33.2 44,44.8 -9.4,-56.7 c 0.1,-0.1 3,2.1 13.5,8.2 z"
           class="cls-2"
           inkscape:connector-curvature="0"
           style="fill:#2fb228" />
        <path
           id="path4729"
           d="m 361.9,278.25 c -4.3,-7.6 -20.2,-20.2 -20.2,-20.2 l -28.9,-15.2 -27.1,8.3 18.8,-22.4 -40.8,-16.2 -13.7,10.5 -13.7,-10.5 -40.8,16.2 18.8,22.4 -27.1,-8.3 -28.9,15.2 c 0,0 -15.9,12.6 -20.2,20.2 a 57.08,57.08 0 0 1 21.3,-7.2 c 0,0 -19.1,39 -19.9,65.7 29.2,-36.5 64.6,-73.7 64.6,-73.7 l 45.9,11.6 45.9,-11.6 c 0,0 35.4,37.2 64.6,73.7 -0.7,-26.7 -19.9,-65.7 -19.9,-65.7 a 57.08,57.08 0 0 1 21.3,7.2 z m -102.5,-27.4 h -18.8 l -15.9,-18.1 h 12.6 l 12.6,8.7 12.6,-8.7 h 12.6 z"
           class="cls-2"
           inkscape:connector-curvature="0"
           style="fill:#2fb228" />
        <polygon
           id="polygon4731"
           points="194,323.35 210.3,299.05 208.5,287.25 222,301.75 230.1,295.25 240.2,305.35 250,297.05 259.7,305.35 269.8,295.25 278,301.75 291.5,287.25 289.7,299.05 306,323.35 306,289.05 283.9,274.65 250,284.35 216,274.65 194,289.05 "
           class="cls-3"
           style="fill:#ffffff" />
        <path
           id="path4733"
           d="m 275.3,369.55 c -10.5,6.1 -25.3,5.3 -25.3,5.3 0,0 -14.8,0.9 -25.3,-5.3 C 214.2,363.35 205.9,353 205.9,353 v 18.8 l 5.1,9.4 4.3,-4.3 34.7,16.6 34.7,-16.6 4.3,4.3 5.1,-9.4 V 353 c -0.1,0 -8.4,10.45 -18.8,16.55 z"
           class="cls-3"
           inkscape:connector-curvature="0"
           style="fill:#ffffff" />
        <path
           id="path4735"
           d="m 317.1,360.25 c -6.5,14.8 -25.6,27.4 -25.6,27.4 l -41.5,12.6 -41.5,-12.6 c 0,0 -19.1,-12.6 -25.6,-27.4 -0.7,8.7 0,23.1 0,23.1 0,0 20.9,20.6 46.9,22 -9,3.2 -28.9,0 -28.9,0 0,0 20.6,21.3 49.1,22 28.5,-0.7 49.1,-22 49.1,-22 0,0 -19.9,3.2 -28.9,0 26,-1.4 46.9,-22 46.9,-22 0,0 0.8,-14.5 0,-23.1 z"
           class="cls-2"
           inkscape:connector-curvature="0"
           style="fill:#2fb228" />
      </g>
      <path
         id="path4739"
         d="m 216.9,206.25 -27.1,-11.9 -3.2,13.7 c 0,0 22.8,2.95 30.3,-1.8 z"
         class="cls-3"
         inkscape:connector-curvature="0"
         style="fill:#ffffff" />
      <path
         id="path4741"
         d="m 283.1,206.25 27.1,-11.9 3.2,13.7 c 0,0 -22.9,2.95 -30.3,-1.8 z"
         class="cls-3"
         inkscape:connector-curvature="0"
         style="fill:#ffffff" />
    </g>
    <g
       data-name="LA - Valiant"
       id="LA_-_Valiant"
       transform="matrix(0.06008557,0,0,0.06008557,12.628663,280.40009)">
      <polygon
         id="polygon4767"
         points="139.41,271.43 111.72,269.19 135.54,304.89 137.65,306.5 160.59,320.66 164.59,326.24 170.71,349.04 177.22,359.86 221.18,423.42 222.54,424.97 239.54,435.66 241.85,436.89 233.54,416.06 179.14,280.44 176.78,264.15 177.68,264.15 230.18,275.07 231.9,277.74 233.19,293.79 245.69,327.41 250.75,342.52 255.74,327.39 268.07,293.7 269.27,277.64 270.98,274.97 323.42,263.78 324.33,263.77 322.05,280.08 268.34,415.97 260.14,436.85 262.43,435.6 279.38,424.82 280.73,423.27 324.37,359.49 330.82,348.63 336.82,325.8 340.8,320.21 363.67,305.92 365.77,304.3 389.41,268.48 361.73,270.86 362.78,269.68 400.33,239.39 404.07,235.77 416.61,194.63 387.3,202.06 388.88,200.08 424.38,163.65 432.22,152.24 465,43.11 439.52,84.12 324.53,190.45 250.25,150.34 176.33,190.75 60.7,85.08 35,44.2 68.33,153.16 76.22,164.53 111.91,200.78 113.5,202.76 84.15,195.48 96.9,236.55 100.66,240.15 138.35,270.25 "
         class="cls-1"
         style="fill:#e5d456" />
    </g>
    <g
       id="g4785"
       transform="matrix(0.06008557,0,0,0.06008557,284.23748,226.16322)">
      <polygon
         id="polygon4781"
         points="100.85,253.1 165.39,253.1 165.39,298.8 178.33,301.52 165.39,308.91 165.39,392.35 221.9,445.43 221.9,253.1 329.03,253.1 263.67,198.56 35,198.56 " />
      <path
         id="path4783"
         d="m 445,252.12 h -0.1 L 221.9,55.35 v -0.77 l -56.51,53.07 v 72.23 h 56.51 v -45 l 137.92,117.25 -119.74,101.22 0.08,79.12 67.68,-59.59 2,-23.3 c 0,0 4.36,9.53 7.07,15.34 l 24.09,-21.25 -14.08,-23 24.8,13.58 93.16,-82 h 0.1 -0.05 z"
         inkscape:connector-curvature="0" />
    </g>
    <g
       id="shanghai"
       transform="matrix(0.06008557,0,0,0.06008557,61.694191,39.518146)">
      <g
         id="g4807">
        <path
           id="path4803"
           d="m 332.32,46.43 c 3.5,4.24 21.74,30.2 34.51,44.86 0.58,-8.73 1.19,-17.07 5.69,-24.5 -1.18,16.36 12.66,36 17.93,42.41 8.53,11.48 22.42,11.33 20.3,-3.16 11.65,9.33 12.52,25.33 1.21,31.52 12.66,13.85 11.84,15.38 18.53,17.36 4.11,1.08 6.26,0 8.15,-1.39 1.09,-0.81 1.33,-3.34 -1.6,-5.24 -14.56,-9.42 -7,-28.9 -6.32,-29 0,0.48 -2.18,15.68 5.92,20.59 19,11.23 20.17,20.3 18.13,36.12 -0.75,5 -7.79,14.38 -17,18.36 a 29.17,29.17 0 0 0 2.17,-9.18 c -2.53,3.79 -11.91,8.59 -18.89,8.53 a 42,42 0 0 0 7.58,-8.53 c -1.64,-0.47 -3.22,0.51 -4.28,1.86 -1.18,1.53 -7.12,7.54 -18.13,4.64 4.13,-1.95 4.81,-3.61 5.66,-6 0.54,-1.55 0.23,-2.12 -1.39,-2.43 -21.24,-3.51 -25.71,-20.09 -46,-30.67 a 59.84,59.84 0 0 0 -7,-2.63 c -0.93,-0.34 -1.53,0 -1.67,1 -0.65,4.37 -2.74,15.39 8.15,19.72 6.84,3.52 24.46,5.81 31.46,24 -12.57,-7.89 -15,-7.18 -20.3,-7.08 8,5.62 11.48,9.76 14.14,15 2.87,6.36 6.86,7 11.13,7.62 8.15,2.11 11,-5.41 11.34,-5.8 4.82,14.07 -1.65,22.3 -11,25.38 a 67.51,67.51 0 0 1 -20.28,2.93 c -20.89,1.18 -21.62,-21.51 -45.29,-17.28 3.18,-2.85 11.6,-10.63 23.25,-2.52 -1.47,-2.87 -1.61,-6.51 -13.79,-9.41 13.49,-4.23 22.09,2.14 27.55,4.41 0.12,-0.1 -0.68,-12.72 -35.45,-21 -8.25,-1.62 -52.07,-9.41 -51.27,-40.73 7,14.08 25.59,17.36 34,7.12 1,-1.24 0.8,-1.9 -0.7,-2.88 -33.86,-23.76 -142.73,7.22 -113.26,48.75 -3.29,-0.28 -44.53,2.33 -47.94,-43.91 -3.79,33.36 21.8,48.53 30.32,52.63 13.89,10 176.44,21.31 221.37,42.35 13.33,5.15 15.5,16.16 15.51,27.41 0.08,92.62 -76.74,147.24 -143.86,187.6 a 1.87,1.87 0 0 1 -1.85,0 C 227.92,429.8 132.82,390.92 137.93,267.1 159,351.17 269.37,397 275.12,398.35 c 10.11,-4 53.39,-21.65 32.32,-54.86 8.56,3.35 14.65,9.24 19.81,16.38 5,-12.89 4.3,-24.69 -6.12,-34.84 19.83,2.81 36.71,11 50.34,26.2 -32,-71 -154.45,-37.15 -193.54,-66 -38.37,-28.57 -39.9,-67 -64.77,-90.1 7,1.1 13.8,2.43 19.91,6.31 -3.76,-12 -11.4,-20.49 -26.2,-31.7 6.19,-3.48 13.63,-4.73 20.91,-4.72 -7.11,-5.16 -17.67,-13.53 -23,-22.82 7.8,3.18 20.45,0.57 24.37,-1.92 20.41,-17.48 40.27,-33.73 62,-45 38.83,-20.1 80.08,-15.71 83.05,-23.18 0.28,-0.3 0.16,-6.25 -0.47,-8.64 -0.58,-3.92 -10,-8.72 -18.52,-13.1 11.29,0.62 40.58,0.66 64.51,23.08 5.58,-18.26 -16.82,-44.59 -33.86,-47 10.5,-0.01 35.37,4.42 46.46,19.99 z m 42.26,79.14 c 3.54,11.06 6.45,17 11.53,19.23 4.8,2 10.35,0.61 12.66,-3.54 0.51,-0.92 0.28,-1.33 -0.81,-1.76 a 32.16,32.16 0 0 1 -6.45,-3.22 c -4.39,-2.81 -8.89,-8.35 -16.93,-10.71 z"
           inkscape:connector-curvature="0" />
        <path
           id="path4805"
           d="m 132.29,317.65 c -2.56,-10 -3.72,-27.37 -2.87,-34.33 C 133,218.07 85.22,217 69.08,199.57 c -24,-26.88 -23,-55.47 -17.95,-75.45 -17.7,24.86 -9,76.35 -4.22,83.34 a 4.25,4.25 0 0 0 3.37,2.59 c 4.5,2.24 19,11.41 28.52,25.95 -13.53,-0.49 -24.12,-6.12 -32.66,-16 0.57,3.65 12.35,23.34 17.44,29.59 1.45,2 2.22,3 6.28,4 30.85,10.96 62.43,64.06 62.43,64.06 z"
           class="cls-1"
           inkscape:connector-curvature="0"
           style="fill:#d22630" />
      </g>
    </g>
    <g
       id="SF"
       transform="matrix(0.06008557,0,0,0.06008557,-94.052084,83.428548)">
      <g
         id="g4831">
        <path
           id="path4827"
           d="M 420,82 H 79.61 C 67.28,82 57.5,91.3 57.5,103.64 v 172.41 h 133.87 a 3.6,3.6 0 0 0 2.12,-0.69 6.49,6.49 0 0 0 2.83,-5.56 6.56,6.56 0 0 0 -2.59,-5.4 v 0 L 115.08,241.19 C 97.55,236.64 87.63,225.46 83.69,208.37 a 90.53,90.53 0 0 1 0.78,-43.86 c 4.76,-17.74 18.29,-28.72 35.69,-29.34 l 322.37,0.09 V 103.64 C 442.5,91.3 432.37,82 420,82 Z"
           class="cls-1"
           inkscape:connector-curvature="0"
           style="fill:#fc4c02" />
        <path
           id="path4829"
           d="m 323.5,209.4 h 85.4 v 46.2 h -85.4 v 67.2 H 263.3 V 181.3 h -117 c -2.87,0 -5.2,2.8 -5.2,6.26 a 6.53,6.53 0 0 0 2.72,5.5 c 2.2,1.79 5.29,2.73 8.13,3.51 22.3,6.13 44.66,12 67,18.2 26.54,7.35 38.4,17.23 39.05,46.23 0.26,11.17 -0.22,22.77 -2.46,33.76 -3.44,16.92 -16.69,28.09 -36.45,28.09 0,0 -105.61,0 -161.61,-0.05 v 75 c 0,0 0,13.78 9.8,16.85 v -18.88 l 2.8,-12.42 2.8,12.42 V 417 a 18,18 0 0 0 5.68,1 h 4.14 v -20.85 l 3.5,-21.72 3.5,21.72 V 418 h 11.2 v -25.36 l 2.8,-19.47 2.8,19.47 V 418 h 9.8 v -30.86 l 3.5,-18.32 3.5,18.32 V 418 h 9.8 v -36.08 l 3.5,-18 3.5,18 V 418 h 9.8 v -57 l 2.8,-21.72 2.8,21.72 v 57 h 11.2 v -57 l 3.5,-21.72 3.5,21.72 v 57 h 9.8 v -36.08 l 2.8,-18 2.8,18 V 418 h 9.8 v -30.86 l 3.5,-18.32 3.5,18.32 V 418 h 9.8 v -25.36 l 3.5,-19.47 3.5,19.47 V 418 h 9.8 v -20.85 l 3.5,-21.72 3.5,21.72 V 418 h 9.8 v -22.23 l 3.5,-12.42 3.5,12.42 V 418 h 8.4 v -19.1 l 3.5,-10.08 3.5,10.08 V 418 h 8.4 v -16.9 l 3.5,-8.4 3.5,8.4 V 418 h 9.8 v -16 l 2.8,-14.69 2.8,14.69 v 16 h 11.2 v -19 l 3.5,-13.17 3.5,13.17 v 19 h 9.8 v -22.74 l 2.8,-12.39 2.8,12.39 V 418 h 9.8 v -26.26 l 3.5,-12.18 3.5,12.18 V 418 h 9.8 v -40.44 l 3.5,-14.69 3.5,14.69 V 418 h 9.8 v -40.44 l 3.5,-14.69 3.5,14.69 V 418 h 9.8 v -26.26 l 3.5,-12.18 3.5,12.18 V 418 h 9.8 v -22.74 l 2.8,-12.39 2.8,12.39 V 418 h 1.65 a 21.81,21.81 0 0 0 8.15,-1.61 V 399 l 3.5,-13.17 3.5,13.17 v 13.37 a 21.72,21.72 0 0 0 7,-16 V 181.3 h -119 z"
           class="cls-1"
           inkscape:connector-curvature="0"
           style="fill:#fc4c02" />
      </g>
    </g>
    <g
       id="seoul"
       transform="matrix(0.06008557,0,0,0.06008557,-43.469096,255.52753)">
      <g
         id="g4865">
        <polygon
           id="polygon4851"
           points="316.63,43.53 183.37,43.53 152.97,58.27 91.14,54.3 71.11,72.2 77.75,138.29 40,234.39 60.57,229.38 78.21,345.83 96.42,332.31 159.28,413.38 164.97,389.47 175.22,393.79 189.34,445.26 217.8,437.52 250,472.47 282.2,437.52 310.66,445.26 324.78,393.79 335.03,389.47 340.72,413.38 403.57,332.31 421.79,345.83 439.43,229.38 460,234.39 422.25,138.29 428.89,72.2 408.86,54.3 347.02,58.27 " />
        <polygon
           id="polygon4853"
           points="89.93,79.58 86.47,77.91 92.94,139.73 61.17,214.45 72.49,212.28 88.37,318.53 97.16,309.39 153.03,378.63 153.34,352.66 103.32,294.17 90.61,207.64 126.78,125.91 "
           class="cls-1"
           style="fill:#ffffff" />
        <polygon
           id="polygon4855"
           points="201.01,244.7 163.71,229.9 168.97,250.93 208.14,266.06 "
           class="cls-1"
           style="fill:#ffffff" />
        <path
           id="path4857"
           d="M 413.39,75.85 404.76,68.43 343.47,74 306.87,57.34 H 193 L 156.4,74 95.11,68.43 86.48,75.85 v 2.07 l 50.73,24.44 -46.6,105.28 12.71,86.53 50,58.49 V 326.24 L 116.81,283.68 107.35,208 133,150 161.44,132.86 134.58,198 l 79.27,31.26 11.29,42.15 -9.08,22.19 -3.63,-12.1 -56.88,-22.59 -8.47,-33.08 -19.56,-8.47 7.48,61.64 24.2,21.38 18.35,-12.3 v 57.71 l 37.72,39.91 26.83,-9.28 -30.66,-27.63 V 321.4 l 38.5,35.5 v 0 l 38.5,-35.5 v 27.43 l -30.66,27.63 26.83,9.28 37.72,-39.91 v -57.71 l 18.35,12.3 24.2,-21.42 7.46,-61.72 -19.56,8.47 -8.47,33.08 -56.88,22.59 -3.63,12.1 -9.08,-22.19 L 286,229.22 365.28,198 338.45,132.85 366.9,150 l 25.61,58 -9.51,75.68 -36.51,42.56 v 26.42 l 50,-58.49 12.71,-86.53 -46.54,-105.28 50.73,-24.44 z M 261,175.83 249.88,201.08 238.76,175.83 173.34,151.06 189.75,139 l 42.88,17.31 -2.87,-17.31 -43.83,-17 14.93,-11.12 28.59,11.12 -2.86,-16.67 -27.79,-10.8 12.86,-10.8 38.27,13 v 0 l 38.27,-13 12.86,10.8 -27.79,10.8 -2.85,16.67 28.58,-11.12 14.93,11.12 -43.83,17 -2.86,17.31 42.88,-17.31 16.36,12.07 z"
           class="cls-2"
           inkscape:connector-curvature="0"
           style="fill:#ac8a00" />
        <polygon
           id="polygon4859"
           points="409.94,79.58 413.39,77.91 406.93,139.73 438.69,214.45 427.38,212.28 411.5,318.53 402.7,309.39 346.84,378.63 346.53,352.66 396.55,294.17 409.26,207.64 373.09,125.91 "
           class="cls-1"
           style="fill:#ffffff" />
        <polygon
           id="polygon4861"
           points="298.86,244.7 336.16,229.9 330.9,250.93 291.73,266.06 "
           class="cls-1"
           style="fill:#ffffff" />
        <polygon
           id="polygon4863"
           points="222.8,425.75 249.94,454.17 277.07,425.75 301.02,430.97 314.95,382.94 289.26,409.35 249.93,395.71 210.61,409.35 184.92,382.94 198.85,430.97 "
           class="cls-1"
           style="fill:#ffffff" />
      </g>
    </g>
    <g
       id="Philly"
       transform="matrix(0.06008557,0,0,0.06008557,284.5675,92.307263)">
      <g
         id="g4898">
        <path
           id="path4890"
           d="M 367.94,154.83 H 172.6 V 249.9 H 91.44 l 80.87,52.1 0.57,99.94 57.64,-53.26 V 302.3 l 115,0.3 49.1,-49.1 V 180 c 0,0 2.54,-25.67 -26.68,-25.17 z M 230.53,206.66 H 328 c 3.06,0.09 13.38,1.26 12.92,12.89 v 12.57 l -17,17 c -0.55,0.08 -1.12,0.15 -1.71,0.21 h -91.68 z"
           inkscape:connector-curvature="0" />
        <g
           id="g4896">
          <path
             id="path4892"
             d="m 159.63,186 c -15.86,-39.15 -18.84,-71.88 -7,-90.9 v 0 c -15.49,-1.3 -33.11,6.24 -33.11,6.24 45.66,-39.59 99.92,-18.68 99.92,-18.68 v 0 c 29.16,9.2 63.8,30 98.58,59.19 h 23.81 C 262.45,63.24 176.38,18.85 133.3,39 90.22,59.15 103.5,137 159.63,225.9 Z"
             class="cls-1"
             inkscape:connector-curvature="0"
             style="fill:#f99d2a" />
          <path
             id="path4894"
             d="m 485,387.7 a 111.5,111.5 0 0 0 -1.26,-13.4 l -0.35,-0.06 c -2.41,-16.44 -7.9,-35 -16.24,-55 A 459.14,459.14 0 0 0 435.69,259 v 0 0 q 4.77,-6 9,-11.87 a 222.33,222.33 0 0 0 22.4,-39.43 c 9.38,-23.71 8.39,-43.28 -5,-55.71 -15.74,-14.58 -46.19,-17.08 -84.81,-9.43 a 38.66,38.66 0 0 1 14,5.05 c 28.54,-5.49 57.9,-3.13 69.11,13.65 18.83,28.19 -30,89.3 -30,89.3 q -1.28,-2 -2.64,-4.11 -2,-3.05 -4.07,-6.12 c -5.32,-7.85 -11,-15.76 -16.06,-22.52 v 18.68 c 9.61,13.39 15.59,22.89 15.44,23.09 -10.09,13.14 -25.05,27.67 -39.23,40.28 q -12.56,11.35 -26.85,22.69 v 0 c -7.68,6.16 -12.7,9.93 -12.7,9.93 h -0.06 q -10,7.51 -20.71,14.89 -4.46,3.08 -8.95,6 a 25.87,25.87 0 0 0 -14.32,-7.48 c -14.46,-2.46 -28.59,7 -31.57,21 a 24.71,24.71 0 0 0 1,13.76 c -84,46.35 -163.53,64.71 -194.29,42.19 l -0.9,4.33 c -2.54,13.45 2.47,29.57 2.47,29.57 -19.32,-27.55 -17.13,-55.9 -12.92,-73 6,-26 29.18,-59.47 65.22,-94 L 115.74,281 C 33.36,351.47 -6,422.39 26.21,452.19 c 35,32.4 142.59,5.16 251.28,-60.68 a 26.12,26.12 0 0 0 11.89,5.25 c 14.46,2.46 28.59,-7 31.57,-21 a 24.79,24.79 0 0 0 -0.49,-12.3 q 19,-13.38 36.13,-27.1 l 0.08,0.06 q 4.58,-3.73 8.91,-7.39 v 0 c 34.17,-28.86 55.94,-53.23 61.43,-59.56 l 1.32,-1.54 v 0 l 0.05,-0.06 c 13.68,21.59 23.29,40.63 30,57.07 7.07,17.07 11.72,33 13.79,47.07 h -0.23 a 125.89,125.89 0 0 1 1.3,13.18 h 0.12 q 0.11,3.82 -0.08,7.4 a 46.57,46.57 0 0 1 -1,9.14 h -0.05 c -2.63,13.85 -9.6,24.11 -21.24,29.55 -19.23,9 -48.15,3.4 -81,-13.26 v 0 c 0,0 -17.13,-7.94 -51,-27.24 0,0 9.23,12.15 42.6,32.73 39.79,21.27 74.89,28.83 97.82,18.11 16.38,-7.66 24.6,-23.73 25.39,-45.62 h -0.07 c 0,0 0,-0.24 0.1,-0.72 q 0.1,-3.67 -0.07,-7.55 z"
             class="cls-1"
             inkscape:connector-curvature="0"
             style="fill:#f99d2a" />
        </g>
      </g>
    </g>
    <g
       id="g4936"
       transform="matrix(0.06008557,0,0,0.06008557,130.65154,39.28719)">
      <path
         id="path4920"
         d="m 275.31,265 a 62.7,62.7 0 1 0 85,-79.43 59.85,59.85 0 1 1 -85,79.43 z"
         class="cls-1"
         inkscape:connector-curvature="0"
         style="fill:#8d042d" />
      <path
         id="path4922"
         d="M 328.49,274 A 49.27,49.27 0 0 1 288.33,261.84 49.17,49.17 0 1 0 362.05,197.11 49.38,49.38 0 0 1 328.49,274 Z"
         class="cls-1"
         inkscape:connector-curvature="0"
         style="fill:#8d042d" />
      <g
         id="g4930">
        <path
           id="path4924"
           d="m 412.76,192.4 c -21.94,-33.5 -70.59,-45.85 -86.44,-50.6 -15.85,-4.75 -23.46,-10.45 -28.32,-18.74 -4.86,-8.29 -2.83,-21.29 4.84,-31.89 -10.59,7.73 -15.45,14.22 -17.7,20.46 l -0.08,0.24 a 30.64,30.64 0 0 0 -1.45,6.3 56,56 0 0 0 6.34,35 c 9.27,17.29 29.25,29 42.54,37.22 13.29,8.22 20.74,25.87 14.1,40.87 -6.64,15 -24,21.7 -38.94,19.92 -14.94,-1.78 -39.32,-18 -46.11,-28.1 0,0 20.12,36.54 53.22,36.54 26.94,0 44.66,-16.4 44.66,-38.93 0,-22.53 -8.68,-32.45 -36.89,-48.84 a 62.71,62.71 0 0 1 -21.62,-19.55 93.12,93.12 0 0 0 27.76,13.76 c 44.74,11.23 65.22,35.85 71.73,50 6.51,14.15 13.69,45.84 -13.56,78.17 -40.17,42.54 -88.73,18.23 -105,3.27 -13.56,-12.48 -28.14,-40 -38.3,-70.26 -1.41,-4.88 -31.5,-83.25 -102.38,-76.61 -70.88,6.64 -90.91,63.37 -89.48,94.74 3.54,77.56 69.74,92.4 93.5,91.12 19.2,-1 31.42,-8.75 31.42,-8.75 0,0 -7.31,1.37 -12.15,0.83 -21.69,-2 -38.48,-22.65 -38.48,-41.88 A 42.73,42.73 0 0 1 199.45,257 47.9,47.9 0 1 0 135.6,326.47 C 89.73,315 73.79,286 69.91,254.87 c -3.37,-27 16.25,-76 68.16,-81.73 49.11,-5.46 76,42 82.46,58.17 0,0 16.84,43.65 26.88,102.63 10.04,58.98 18.17,136.06 18.17,136.06 l 24.36,-95.8 c 0,0 -21.65,-16.46 -27.48,-57.49 29.6,49.22 102.65,40.28 136.46,4.19 37.58,-40.12 35.78,-95 13.84,-128.5 z"
           class="cls-1"
           inkscape:connector-curvature="0"
           style="fill:#8d042d" />
        <path
           id="path4926"
           d="M 145.3,184.15 A 65.41,65.41 0 0 0 88.24,281.52 67.56,67.56 0 0 1 203,218.69 65.4,65.4 0 0 0 145.3,184.15 Z"
           class="cls-1"
           inkscape:connector-curvature="0"
           style="fill:#8d042d" />
        <path
           id="path4928"
           d="m 159.21,221 a 54.64,54.64 0 0 1 39.9,17.26 53.033009,53.033009 0 1 0 -93,51 54.79,54.79 0 0 1 53.1,-68.26 z"
           class="cls-1"
           inkscape:connector-curvature="0"
           style="fill:#8d042d" />
      </g>
      <path
         id="path4932"
         d="M 351.21,84.87 C 376,84.75 372,93.48 372,93.48 c 8.07,-1.25 13.12,-4.26 12,-11.12 -1,-6 -7,-9.14 -13.45,-8.6 -0.72,-5.56 6.81,-12 6.81,-12 0,0 -10.82,-4 -19.07,3.51 -1.43,-6.63 1.32,-13.19 4.73,-15.88 -3.71,-3.21 -14,-2.09 -20,6.34 -4.47,-5.69 -3.53,-13 1.85,-18.9 -7.72,-1.43 -20.27,5.56 -23.32,15.43 -4.73,-4.86 -7.35,-15.07 -2.69,-22.24 -10.16,5.4 -19.72,13.12 -19.72,30.38 0.07,24.6 30.95,24.6 52.07,24.47 z"
         class="cls-1"
         inkscape:connector-curvature="0"
         style="fill:#8d042d" />
      <path
         id="path4934"
         d="m 371.37,103.78 c 0,0 -9.14,0 -9.68,14.89 -0.58,15.56 5.13,27.32 18.11,26.32 11.93,-0.93 14.11,-15 6.28,-22.59 -6.67,-6.44 -15.44,-8.22 -16.14,-12.76 -0.7,-4.54 1.43,-5.86 1.43,-5.86 z"
         class="cls-1"
         inkscape:connector-curvature="0"
         style="fill:#8d042d" />
    </g>
    <g
       id="g4977"
       transform="matrix(0.06008557,0,0,0.06008557,305.22307,134.5954)">
      <rect
         id="rect4959"
         height="265.54001"
         width="437.03"
         y="117.23"
         x="31.48"
         class="cls-1"
         style="fill:#171c38" />
      <g
         id="g4975">
        <polygon
           id="polygon4961"
           points="373.89,352.45 271.44,250 373.89,147.54 331.02,147.54 250,228.56 168.98,147.54 126.11,147.54 228.56,250 126.11,352.45 168.98,352.45 250,271.44 331.02,352.45 "
           class="cls-2"
           style="fill:#0f57ea" />
        <polygon
           id="polygon4963"
           points="416.76,147.54 314.31,250 416.76,352.45 438.2,352.45 438.2,331.02 357.18,250 438.2,168.98 438.2,147.54 "
           class="cls-2"
           style="fill:#0f57ea" />
        <polygon
           id="polygon4965"
           points="438.2,211.85 400.05,250 438.2,288.15 "
           class="cls-2"
           style="fill:#0f57ea" />
        <polygon
           id="polygon4967"
           points="142.82,250 61.8,331.02 61.8,352.45 83.24,352.45 185.69,250 83.24,147.54 61.8,147.54 61.8,168.98 "
           class="cls-2"
           style="fill:#0f57ea" />
        <polygon
           id="polygon4969"
           points="99.95,250 61.8,211.85 61.8,288.15 "
           class="cls-2"
           style="fill:#0f57ea" />
        <polygon
           id="polygon4971"
           points="250,314.31 211.85,352.45 288.15,352.45 "
           class="cls-2"
           style="fill:#0f57ea" />
        <polygon
           id="polygon4973"
           points="250,185.69 288.15,147.54 211.85,147.54 "
           class="cls-2"
           style="fill:#0f57ea" />
      </g>
    </g>
    <g
       id="g5049"
       transform="matrix(0.06008557,0,0,0.06008557,190.28776,49.954363)">
      <path
         id="path5001"
         d="m 180.68,377.29 c 20.63,23.33 44,42.61 69.36,56.68 25.31,-14 48.67,-33.26 69.27,-56.47 a 682,682 0 0 0 -138.63,-0.21 z"
         class="cls-1"
         inkscape:connector-curvature="0"
         style="fill:#1c2b39" />
      <path
         id="path5003"
         d="m 425.67,212.32 c 10.41,-45.36 13.85,-89.9 10.7,-131.85 l -0.21,-1.56 -0.56,-0.37 C 388.71,54.69 322.87,39.77 249.22,39.77 175.57,39.77 110.67,54.65 63.78,78.44 l -0.12,2 a 441.9,441.9 0 0 0 10.45,131.8 c 26.84,116.95 95.18,210.05 175.65,254 80.48,-43.94 149.08,-136.97 175.91,-253.92 z m -174.5,227.45 -1.38,0.75 -1.38,-0.75 C 213.03,420.45 180.24,390.2 153.58,352.29 126.1,313.2 105.58,266.44 94.26,217.06 A 386.62,386.62 0 0 1 85.11,101.63 l 0.19,-3.36 1.47,-0.75 C 129.91,75.64 187.63,63.58 249.3,63.58 c 62.21,0 120.22,12.08 163.36,34 l 0.28,0.16 1.58,1 0.38,2.82 c 2.8,37.34 -0.35,76.19 -9.37,115.5 -11.32,49.34 -31.88,96.1 -59.44,135.2 -26.68,37.94 -59.5,68.18 -94.92,87.51 z"
         class="cls-1"
         inkscape:connector-curvature="0"
         style="fill:#1c2b39" />
      <path
         id="path5005"
         d="m 404.66,179.08 c -42.32,-16.72 -96.18,-26.79 -155.33,-26.79 -58.17,0 -110.73,9.73 -152.55,26 -1.15,0.45 -2.29,0.9 -3.42,1.36 0.22,1.6 0.45,3.2 0.69,4.81 q 2.31,15.66 5.89,31.36 a 400.06,400.06 0 0 0 19.5,61.72 q 3.72,9.11 7.85,17.91 a 344.72,344.72 0 0 0 53.22,81.89 682,682 0 0 1 138.63,0.21 344.35,344.35 0 0 0 53.48,-82 q 4.15,-8.82 7.89,-18 A 398.31,398.31 0 0 0 400,215.84 q 3.93,-17.12 6.34,-34.1 c 0.09,-0.62 0.19,-1.25 0.27,-1.87 z"
         class="cls-2"
         inkscape:connector-curvature="0"
         style="fill:#59cbe8" />
      <path
         id="path5007"
         d="m 414.91,101.62 -0.38,-2.82 -1.58,-1 -0.28,-0.16 c -43.14,-21.94 -101.16,-34 -163.36,-34 -61.68,0 -119.4,12.05 -162.53,33.94 l -1.47,0.75 -0.19,3.36 a 386.62,386.62 0 0 0 9.15,115.43 c 11.33,49.38 31.85,96.15 59.32,135.23 26.65,37.91 59.44,68.16 94.83,87.48 l 1.38,0.75 1.38,-0.75 c 35.42,-19.34 68.25,-49.57 94.93,-87.45 27.56,-39.11 48.11,-85.86 59.44,-135.2 9.01,-39.36 12.16,-78.18 9.36,-115.56 z m -8.32,78 v 0.29 c -0.09,0.62 -0.19,1.25 -0.27,1.87 q -2.42,17 -6.34,34.1 a 398.31,398.31 0 0 1 -19.51,61.7 q -3.74,9.13 -7.89,18 a 344.35,344.35 0 0 1 -53.48,82 c -20.61,23.22 -44,42.43 -69.27,56.47 -25.35,-14.07 -48.73,-33.35 -69.36,-56.68 a 344.72,344.72 0 0 1 -53.22,-81.89 q -4.13,-8.8 -7.85,-17.91 A 400.06,400.06 0 0 1 99.9,215.85 q -3.6,-15.69 -5.89,-31.36 c -0.24,-1.6 -0.48,-3.2 -0.69,-4.81 0,-0.17 0,-0.33 -0.06,-0.5 A 372,372 0 0 1 90.85,102 v -0.11 c 42.19,-21 98.37,-32.58 158.46,-32.58 60.9,0 117.63,11.7 159.89,33 a 368,368 0 0 1 -2.6,77.27 z"
         class="cls-3"
         inkscape:connector-curvature="0"
         style="fill:#ff8200" />
      <path
         id="path5009"
         d="m 409.2,102.28 c -42.26,-21.26 -99,-33 -159.89,-33 C 189.23,69.32 133,80.88 90.85,101.9 v 0.1 a 372,372 0 0 0 2.37,77.1 c 0,0.17 0,0.33 0.06,0.5 1.13,-0.46 2.27,-0.91 3.42,-1.36 41.82,-16.23 94.38,-26 152.55,-26 59.15,0 113,10.07 155.33,26.79 l 2,0.79 v -0.29 a 368,368 0 0 0 2.62,-77.25 z"
         class="cls-4"
         inkscape:connector-curvature="0"
         style="fill:#ffffff" />
      <path
         id="path5011"
         d="m 268,254.39 a 18,18 0 1 0 -18,17.84 17.89,17.89 0 0 0 18,-17.84 z"
         class="cls-3"
         inkscape:connector-curvature="0"
         style="fill:#ff8200" />
      <g
         id="g5033">
        <polygon
           id="polygon5013"
           points="357.57,229.17 315.91,227.61 305.41,233.52 357.57,231.57 "
           class="cls-1"
           style="fill:#1c2b39" />
        <polygon
           id="polygon5015"
           points="142.4,231.57 195.53,233.56 184.84,227.58 142.4,229.17 "
           class="cls-1"
           style="fill:#1c2b39" />
        <path
           id="path5017"
           d="m 301.28,282.32 c -14.1,0.89 -14.15,1.21 -23.51,-9.3 a 10.79,10.79 0 0 1 -2.29,-5.73 92.23,92.23 0 0 1 -0.84,-10.07 v -0.49 l 4.48,-3 v -6.09 l -8,4.83 c 0.05,0.64 0.39,1.28 0.38,1.94 -0.01,0.66 0.1,1.32 0,2 0,0.2 0,0.4 0,0.6 -0.06,0.46 -0.09,0.91 -0.18,1.36 0,0.21 -0.06,0.42 -0.11,0.63 -0.11,0.48 -0.23,1 -0.37,1.42 0,0.14 -0.07,0.29 -0.12,0.44 q -0.28,0.86 -0.63,1.69 c -0.09,0.22 -0.2,0.44 -0.3,0.66 -0.1,0.22 -0.32,0.67 -0.49,1 -0.17,0.33 -0.27,0.5 -0.41,0.75 -0.14,0.25 -0.33,0.55 -0.51,0.83 -0.18,0.28 -0.32,0.51 -0.49,0.76 -0.17,0.25 -0.35,0.47 -0.53,0.7 q -0.56,0.74 -1.19,1.43 l -0.41,0.45 c -0.28,0.29 -0.56,0.57 -0.86,0.84 l -0.37,0.34 a 21.57,21.57 0 0 1 -4.89,3.28 l -0.25,0.12 c -0.44,0.21 -0.89,0.4 -1.34,0.58 v 0 l 1.9,34.56 30.78,-4 q 27.76,-3 55.5,-6.26 l 26.36,-3.08 q 4.15,-8.82 7.89,-18 c -26.36,1.59 -52.78,3.14 -79.2,4.81 z M 352.59,296 v 0 a 5.2,5.2 0 0 1 -2.72,-0.89 9.7,9.7 0 0 1 -1.18,-0.87 c -0.29,-0.25 -0.57,-0.51 -0.83,-0.77 a 6.68,6.68 0 0 1 -1.57,-2.67 7.34,7.34 0 0 1 -0.32,-1.59 c 0,-0.24 0,-0.47 0,-0.71 a 6.8,6.8 0 0 1 6.65,-6.71 h 0.08 c 3.65,0 6.6,3.49 6.58,7.13 -0.02,3.64 -3.04,7.08 -6.69,7.08 z"
           class="cls-1"
           inkscape:connector-curvature="0"
           style="fill:#1c2b39" />
        <path
           id="path5019"
           d="m 238.3,272.05 -0.12,-0.09 c -0.53,-0.37 -1,-0.75 -1.54,-1.17 -0.54,-0.42 -1.06,-0.93 -1.56,-1.44 a 21.4,21.4 0 0 1 -6.19,-15.42 c 0,-0.49 0.77,-1 0.81,-1.45 l -8.83,-5.37 v 6.63 l 6,3.26 v 0.23 c 0,3.36 -0.86,6.72 -1.23,10.07 a 11.06,11.06 0 0 1 -2.51,5.73 c -9.36,10.51 -9.5,10.19 -23.6,9.3 -26.66,-1.69 -53.35,-3.25 -80,-4.83 q 3.72,9.11 7.85,17.91 l 27.08,3.16 q 34.47,4 69,7.75 h 0.49 l 16.24,2.11 1.74,-34.43 v 0 a 21.2,21.2 0 0 1 -3.63,-1.95 z M 154,292.16 a 7.43,7.43 0 0 1 -2.16,2.59 6.18,6.18 0 0 1 -3.71,1.28 v 0 c -1.79,0 -3.47,-1.25 -4.73,-2.53 a 7,7 0 0 1 -1.92,-5 6.8,6.8 0 0 1 6.66,-6.71 h 0.08 c 3.65,0 6.6,3.49 6.58,7.13 a 7.19,7.19 0 0 1 -0.8,3.24 z"
           class="cls-1"
           inkscape:connector-curvature="0"
           style="fill:#1c2b39" />
        <path
           id="path5021"
           d="m 250.31,275.75 a 21.56,21.56 0 0 1 -4.92,-0.59 l -3.25,61 c 0.89,9.39 3.79,14 7.94,18.95 4.15,-4.9 7.05,-8.92 7.94,-18.31 l -3.37,-61.52 a 21.5,21.5 0 0 1 -4.34,0.47 z"
           class="cls-1"
           inkscape:connector-curvature="0"
           style="fill:#1c2b39" />
        <path
           id="path5023"
           d="M 271.07,248.81 322,220.18 c 6.4,-4.94 9.74,-9.72 11.78,-14.84 q 0.51,-1.28 0.92,-2.59 c -6.36,-0.88 -12.71,-0.31 -21.12,4 l -13.47,9.56 -33.66,23.9 a 21.38,21.38 0 0 1 4.62,8.6 z"
           class="cls-1"
           inkscape:connector-curvature="0"
           style="fill:#1c2b39" />
        <path
           id="path5025"
           d="m 178.71,220.18 50.89,28.63 a 21.31,21.31 0 0 1 4.64,-8.63 l -26.77,-19 -20.34,-14.45 c -8.41,-4.27 -14.76,-4.85 -21.12,-4 a 33.57,33.57 0 0 0 2.38,5.74 36.17,36.17 0 0 0 10.32,11.71 z"
           class="cls-1"
           inkscape:connector-curvature="0"
           style="fill:#1c2b39" />
        <path
           id="path5027"
           d="m 245.4,233.45 a 21.21,21.21 0 0 1 3.46,-0.53 c 0.49,0 1,-0.06 1.47,-0.06 h 0.26 a 21.39,21.39 0 0 1 13.28,4.82 l 16.13,-11.41 -9.51,-0.36 -6.64,-0.25 -9,-15.9 -3.44,-43 h -2.11 l -3.44,43 -8.95,15.91 -14,0.5 -2.26,0.08 16.13,11.44 a 21.55,21.55 0 0 1 8.62,-4.24 z"
           class="cls-1"
           inkscape:connector-curvature="0"
           style="fill:#1c2b39" />
        <path
           id="path5029"
           d="m 148.09,283.82 a 4.71,4.71 0 1 0 4.74,4.74 c 0,-0.15 0,-0.29 0,-0.44 a 4.74,4.74 0 0 0 -4.74,-4.3 z"
           class="cls-1"
           inkscape:connector-curvature="0"
           style="fill:#1c2b39" />
        <path
           id="path5031"
           d="m 352.59,283.82 a 4.74,4.74 0 0 0 -4.73,4.45 c 0,0.1 0,0.2 0,0.3 a 4.76,4.76 0 0 0 4.74,4.74 h 0.4 a 4.74,4.74 0 0 0 -0.4,-9.47 z"
           class="cls-1"
           inkscape:connector-curvature="0"
           style="fill:#1c2b39" />
      </g>
      <g
         id="g5047">
        <path
           id="path5035"
           d="m 139.8,141.5 c -7.61,1.93 -15.2,4.1 -22.69,6.47 q 0,-22.29 0,-44.57 c -4.3,1.35 -6.45,2.06 -10.72,3.52 q 0,27.48 0,55 c 11,-3.74 22.14,-7.13 33.41,-10 0,-4.19 0,-6.27 0,-10.42 z"
           class="cls-1"
           inkscape:connector-curvature="0"
           style="fill:#1c2b39" />
        <path
           id="path5037"
           d="m 156.33,148.28 c 7.33,-1.58 11,-2.3 18.39,-3.57 A 12.63,12.63 0 0 0 185.6,132.14 V 98.25 c 0,-6.41 -4.46,-10.21 -10.88,-9.1 -7.38,1.27 -11.06,2 -18.39,3.57 A 13.55,13.55 0 0 0 145.55,106 q 0,16.94 0,33.89 c 0,6.43 4.39,9.77 10.78,8.39 z m 0.15,-42.62 a 3,3 0 0 1 2.59,-3.14 c 5.15,-1.08 7.73,-1.58 12.89,-2.5 1.68,-0.3 2.6,0.46 2.6,2.14 q 0,14.81 0,29.61 a 2.87,2.87 0 0 1 -2.6,3.05 c -5.17,0.92 -7.75,1.42 -12.89,2.5 -1.67,0.35 -2.59,-0.37 -2.59,-2 q 0,-14.85 0,-29.66 z"
           class="cls-1"
           inkscape:connector-curvature="0"
           style="fill:#1c2b39" />
        <path
           id="path5039"
           d="m 206.83,102.6 q 10.3,17.93 20.46,35.95 c 4.79,-0.25 7.19,-0.34 12,-0.45 q 0,-27.48 0,-55 c -4.18,0.1 -6.27,0.18 -10.44,0.38 q 0,18.74 0,37.47 -10.16,-18.05 -20.46,-36 c -4.78,0.45 -7.17,0.71 -11.94,1.29 q 0,27.48 0,55 c 4.16,-0.51 6.24,-0.73 10.4,-1.14 q -0.02,-18.76 -0.02,-37.5 z"
           class="cls-1"
           inkscape:connector-curvature="0"
           style="fill:#1c2b39" />
        <path
           id="path5041"
           d="m 291.47,129.07 q 0,-16.64 0,-33.28 a 11.4,11.4 0 0 0 -11,-11.73 q -14.48,-1 -29,-1 0,27.48 0,55 14.51,0 29,1 c 6.53,0.41 11,-3.58 11,-9.99 z m -13.74,-0.62 c -6,-0.38 -9,-0.52 -15.08,-0.69 q 0,-17.1 0,-34.19 c 6,0.17 9.05,0.31 15.08,0.69 a 2.53,2.53 0 0 1 2.63,2.74 q 0,14.5 0,29 a 2.19,2.19 0 0 1 -2.63,2.46 z"
           class="cls-1"
           inkscape:connector-curvature="0"
           style="fill:#1c2b39" />
        <path
           id="path5043"
           d="m 311.95,142.62 c 7.4,1 11.1,1.65 18.46,3 6.42,1.18 10.83,-2.29 10.83,-8.7 q 0,-16.94 0,-33.89 a 13.05,13.05 0 0 0 -10.83,-13 c -7.37,-1.36 -11.06,-2 -18.46,-3 -6.45,-0.91 -10.92,3 -10.92,9.43 q 0,16.94 0,33.89 c -0.03,6.44 4.46,11.36 10.92,12.27 z m 2.76,-44.78 c 5.19,0.77 7.78,1.19 12.95,2.11 a 2.88,2.88 0 0 1 2.6,3.06 q 0,14.81 0,29.61 c 0,1.68 -0.92,2.42 -2.6,2.12 -5.17,-0.92 -7.76,-1.34 -12.95,-2.11 a 2.77,2.77 0 0 1 -2.61,-3 q 0,-14.81 0,-29.61 c 0,-1.64 0.9,-2.43 2.61,-2.18 z"
           class="cls-1"
           inkscape:connector-curvature="0"
           style="fill:#1c2b39" />
        <path
           id="path5045"
           d="m 362.16,114.92 q 10.06,21.54 19.9,43.18 c 4.63,1.45 6.94,2.2 11.54,3.78 v -55 c -4,-1.37 -6,-2 -10,-3.31 q 0,18.74 0,37.47 -9.84,-21.67 -19.89,-43.25 C 359,96.6 356.65,96 352,94.9 q 0,27.48 0,55 c 4.09,1 6.14,1.48 10.21,2.54 q -0.05,-18.79 -0.05,-37.52 z"
           class="cls-1"
           inkscape:connector-curvature="0"
           style="fill:#1c2b39" />
      </g>
    </g>
    <polygon
       id="polygon5088"
       points="87.69,201.47 146.42,183.49 178.39,164.99 188.84,176.55 167.22,202.27 150.68,210.62 158.99,215.57 307.81,214.16 290.17,242.9 195.15,247.53 193.25,266.59 174.39,286.56 170.15,306.69 153.66,323.06 136.71,345.2 55.64,331.62 53.08,331.95 83.49,380.2 150.1,380.2 269.7,315.5 241.99,313.07 233.24,291.68 488,217.29 374.72,217.29 413.61,186.17 195.89,193.95 260.39,117.8 87.87,166.72 18,255.29 40.37,251.51 50.24,243.11 "
       class="cls-1"
       transform="matrix(0.06008557,0,0,0.06008557,-107.58982,184.27372)"
       style="fill:#fb7299" />
    <g
       id="Houston"
       transform="matrix(0.06008557,0,0,0.06008557,-43.892354,64.304607)">
      <g
         id="g5111">
        <polygon
           id="polygon5103"
           points="233.45,79.7 251.22,25 268.99,79.7 326.51,79.7 279.98,113.51 297.75,168.21 251.22,134.41 204.69,168.21 222.46,113.51 175.93,79.7 "
           class="cls-1"
           style="fill:#97d700" />
        <path
           id="path5105"
           d="m 379.51,160.56 -2.88,0.76 c -47.4,5.6 -69.21,22.31 -69.21,22.31 -8.22,8 -13.53,10.21 -13.53,10.21 a 57,57 0 0 1 -12.2,2.36 c -0.75,-0.17 -2.77,1.7 -2.77,1.7 a 36.47,36.47 0 0 0 -16,18.25 41.23,41.23 0 0 0 -5.7,-2.16 28,28 0 0 0 -14.17,-0.08 44.14,44.14 0 0 0 -6,2.24 36.47,36.47 0 0 0 -16,-18.25 c 0,0 -2,-1.87 -2.77,-1.7 a 57,57 0 0 1 -12.2,-2.36 c 0,0 -5.31,-2.19 -13.53,-10.21 0,0 -21.81,-16.71 -69.21,-22.31 l -2.88,-0.76 c 0,0 -0.55,0.5 -0.22,1.88 l 9.61,47.19 5.44,-3.94 c 0,0 0.44,-0.56 2.11,-0.61 0,0 27.37,-1.87 35.49,7.72 0,0 3,4.13 3.41,7.65 0,0 0.76,2 -4.34,5.48 0,0 -10,4.55 -12,8.62 a 26,26 0 0 0 -0.43,15.51 c 0,0 0.87,2.93 1.68,5.31 0,0 2.68,8 15.17,8.62 0,0 7.55,0.38 9.61,3.47 a 20.87,20.87 0 0 1 3.31,6.34 l 3.52,15.61 a 14.47,14.47 0 0 0 3.58,7.37 c 0,0 5.39,5.88 8,8.1 0,0 0.32,0.23 0.28,1.06 v 27.94 a 5.27,5.27 0 0 0 3.69,5.18 2,2 0 0 1 1.43,0.86 24.63,24.63 0 0 1 4.18,8.91 l 2.42,85.41 c 0,0 -0.74,1.71 4.82,5 l 0.78,0.16 9,1.28 1.36,0.74 h 1.38 V 450 c 0,0 -0.14,2.38 4,3.06 h 7 c 0,0 3.37,-0.17 3.2,-3.13 v -1.58 h 4.16 v 1.58 c -0.17,3 3.2,3.13 3.2,3.13 h 7 c 4.13,-0.69 4,-3.06 4,-3.06 v -8.6 h 1.38 l 1.36,-0.74 9,-1.28 0.78,-0.16 c 5.56,-3.27 4.82,-5 4.82,-5 L 286,348.83 a 24.63,24.63 0 0 1 4.18,-8.91 2,2 0 0 1 1.43,-0.86 5.27,5.27 0 0 0 3.69,-5.18 v -27.94 c 0,-0.83 0.28,-1.06 0.28,-1.06 2.63,-2.22 8,-8.1 8,-8.1 a 14.47,14.47 0 0 0 3.58,-7.37 l 3.52,-15.61 a 20.87,20.87 0 0 1 3.31,-6.34 c 2.06,-3.09 9.61,-3.47 9.61,-3.47 12.48,-0.65 15.17,-8.62 15.17,-8.62 0.81,-2.39 1.68,-5.31 1.68,-5.31 a 26,26 0 0 0 -0.43,-15.51 c -2,-4.07 -12,-8.62 -12,-8.62 -5.1,-3.47 -4.34,-5.48 -4.34,-5.48 0.43,-3.52 3.41,-7.65 3.41,-7.65 8.12,-9.59 35.49,-7.72 35.49,-7.72 1.67,0.06 2.11,0.61 2.11,0.61 l 5.44,3.94 9.61,-47.19 c 0.32,-1.38 -0.23,-1.88 -0.23,-1.88 z m -195.44,96.12 a 13.79,13.79 0 0 1 -9.54,2.3 10.65,10.65 0 0 1 -8.42,-7.46 22.27,22.27 0 0 1 -1.18,-9.71 c 0.84,-5.05 4.69,-5.87 9.6,-6.51 7.91,-1 9.6,2.27 9.6,2.27 2.86,3.72 2.86,13.05 2.86,13.05 a 8.59,8.59 0 0 1 -2.92,6.06 z M 255,418.43 c 0.48,4 -2.69,7 -2.69,7 v 14.08 h -4.57 v -14.12 c 0,0 -3.17,-2.93 -2.69,-7 l -0.34,-86 a 8.3,8.3 0 0 1 2.75,-5.61 h 5.12 a 8.3,8.3 0 0 1 2.75,5.61 z m 2.26,-191.61 -3.36,6.81 a 27.82,27.82 0 0 0 -1.12,2.78 v 71 h -5.49 v -71 a 27.82,27.82 0 0 0 -1.12,-2.78 l -3.36,-6.81 a 3.72,3.72 0 0 1 0.41,-3.86 c 7.77,-4.55 13.6,-0.05 13.6,-0.05 a 3.7,3.7 0 0 1 0.41,3.91 z m 68.24,8.48 c 4.91,0.64 8.76,1.46 9.6,6.51 a 22.27,22.27 0 0 1 -1.18,9.71 10.65,10.65 0 0 1 -8.42,7.48 13.79,13.79 0 0 1 -9.54,-2.3 8.59,8.59 0 0 1 -2.92,-6.06 c 0,0 0,-9.33 2.86,-13.05 0,0 1.88,-3.27 9.57,-2.27 z"
           inkscape:connector-curvature="0" />
        <path
           id="path5107"
           d="M 113.69,159.4 A 16.45,16.45 0 0 1 109.56,158.26 37.89,37.89 0 0 1 93.05,128 c 0,0 -3,-21.4 10.26,-39.49 v -2.16 c 0,0 -33.31,26.08 -33.31,60.1 0,0 0.82,26.24 9,37.81 0,0 12,17.47 45.51,24.37 z"
           class="cls-1"
           inkscape:connector-curvature="0"
           style="fill:#97d700" />
        <path
           id="path5109"
           d="m 396.68,86.35 v 2.13 C 410,106.56 407,128 407,128 a 37.93,37.93 0 0 1 -16.5,30.3 16.4,16.4 0 0 1 -4,1.11 l -10.77,49.22 C 409.09,201.71 421,184.3 421,184.3 c 8.13,-11.57 8.95,-37.81 8.95,-37.81 C 430,112.43 396.68,86.35 396.68,86.35 Z"
           class="cls-1"
           inkscape:connector-curvature="0"
           style="fill:#97d700" />
      </g>
    </g>
    <g
       id="g5136"
       transform="matrix(0.06008557,0,0,0.06008557,-83.795156,226.27378)">
      <path
         id="path5132"
         d="m 272.59,226.24 h -93.07 l -36.6,47 h 46.43 l -24.25,41 H 131 c -4.35,0 -17.52,-5.33 -28.23,-17.66 -8.33,-9.57 -17.51,-26.21 -14,-51.11 6.4,-45.54 52.94,-68.56 61.73,-68.56 h 52 l -1.82,22.89 3.49,-4.41 L 293.45,80.75 195,124.36 h -38.55 c -19.94,0 -47.49,12.59 -70.18,32.07 -27.63,23.72 -45.39,54.85 -50,87.66 -4.92,35 4.56,67.45 26.68,91.45 17.48,19 41.81,31.23 62,31.23 h 69.84 z"
         class="cls-1"
         inkscape:connector-curvature="0"
         style="fill:#67a2b2" />
      <polygon
         id="polygon5134"
         points="465,311.07 320.4,311.07 461.99,124.15 300.08,124.15 268.65,176.69 359.61,176.69 246.61,325.86 173.29,419.25 286.68,363.6 424.08,363.6 "
         class="cls-1"
         style="fill:#67a2b2" />
    </g>
    <g
       data-name="LA - Gladiators"
       id="LA_-_Gladiators"
       transform="matrix(0.06008557,0,0,0.06008557,6.2430217,49.660017)">
      <g
         id="g5165">
        <path
           id="path5153"
           d="m 133.21,83 17.72,2.81 c 2,-0.12 1.38,-1.5 1.38,-1.5 v -13 A 205.5,205.5 0 0 1 250,46.78 c 113.22,0 205,91 205,203.22 a 201.58,201.58 0 0 1 -55.6,139.15 l -12.85,-13.3 c 0,0 -18,-15.41 -35.92,-29.76 l 24.78,33.19 c 0,0 10.26,13.16 13.3,20.34 A 206.27,206.27 0 0 1 100,388.48 v -20.29 a 3.08,3.08 0 0 0 -1.19,-1.88 L 76.2,346.41 a 2.8,2.8 0 0 0 -2.38,0 L 70.36,348 A 200.93,200.93 0 0 1 45,250 C 45,180.79 79.9,119.65 133.21,83 Z"
           class="cls-1"
           inkscape:connector-curvature="0"
           style="fill:#381460" />
        <g
           id="g5161">
          <path
             id="path5155"
             d="m 174.77,89.51 c 78,-36 168.4,-10.44 218.2,56.3 C 343.55,83.5 252.21,62.05 177.92,96.33 102.63,131.08 59.06,216.48 76.2,295.4 56.12,213.24 95.73,126 174.77,89.51 Z"
             class="cls-2"
             inkscape:connector-curvature="0"
             style="fill:#ffffff" />
          <path
             id="path5157"
             d="m 426.58,235.55 a 181,181 0 0 1 -48.64,133 l -4.83,-4 c 34.09,-33.93 54.73,-80.55 53.47,-129 z"
             class="cls-2"
             inkscape:connector-curvature="0"
             style="fill:#ffffff" />
          <path
             id="path5159"
             d="M 289.47,412.12 A 180.6,180.6 0 0 0 368,369.4 l 3.93,5.26 a 177.09,177.09 0 0 1 -80.66,44.76 c -83.4,20.8 -167.39,-21.19 -203.85,-96.06 36.94,70.44 122.67,108.56 202.05,88.76 z"
             class="cls-2"
             inkscape:connector-curvature="0"
             style="fill:#ffffff" />
        </g>
        <path
           id="path5163"
           d="m 396.73,178.16 -12.35,0.06 c -15.4,-6.89 -32.9,-8.7 -32.9,-8.7 a 10,10 0 0 1 0.86,-3.25 3.21,3.21 0 0 0 -0.29,-3.54 51.17,51.17 0 0 0 -27.94,-11.14 c -2.09,-5.7 -7.22,-17 -7.22,-17 a 10.79,10.79 0 0 0 -6.27,-6.94 c -10.83,-6.68 -36,-12.61 -43.5,-14.2 -7.5,-1.59 -24,-2.48 -24,-2.48 -13.95,0.09 -32.2,0 -32.2,0 a 65.13,65.13 0 0 1 -33.34,-7.28 l 0.09,2.37 a 191.11,191.11 0 0 0 8.26,18.46 c -27.32,43.64 -1.17,85.62 -1.17,85.62 -41.48,-43 -13.31,-78.5 -13.31,-78.5 C 141.1,141.75 120.24,179 120.24,179 a 26.1,26.1 0 0 1 -3.87,5.92 c -0.71,0.8 -9.57,9.68 -9.57,9.68 -5.76,7.64 -21.53,12.75 -21.53,12.75 a 32.31,32.31 0 0 0 25.56,9.31 c -3.1,17.25 -0.87,36.73 -0.87,36.73 7.69,46 24.86,52.42 24.86,52.42 l 22.54,4.8 c 63.64,22.54 78.48,43.59 78.48,43.59 -2.12,-20.83 -14.9,-35.41 -31.66,-47.77 A 149.93,149.93 0 0 1 168.24,268.1 c 0,0 22.44,19.43 41.58,29.71 66,35.42 45.23,77.88 45.23,77.88 C 250.56,389 236,400 236,400 c 22.39,0 35.3,-6.89 35.3,-6.89 24.49,-12.63 32.28,-25.8 32.28,-25.8 -2.26,-26.67 -26.35,-90.79 -26.71,-91.87 -1.53,-4.5 -10.53,-24.65 -10.53,-24.65 17.2,-1.2 23.81,3.14 23.81,3.14 a 30.2,30.2 0 0 1 0.37,13.49 c -1.18,4.8 -4.92,10.75 -4.92,10.75 0,0 6,-1 10,-0.06 26,6.19 27.3,26.2 27.3,26.2 -4.25,6.33 -13.68,10.6 -13.68,10.6 a 57.08,57.08 0 0 0 14.78,3.7 l 11.57,-4.74 c 12.15,-5.58 21.39,-18.17 21.39,-18.17 a 2.12,2.12 0 0 0 0.47,-2 c -5.78,-11 1.93,-23.67 1.93,-23.67 l -0.69,-9.85 -0.72,-0.24 a 17.56,17.56 0 0 1 -9.21,10 c -3.37,1 -8.56,0 -8.56,0 -11.93,-3.63 -15.18,-7.52 -15.18,-7.52 -4.67,-10.9 -3.24,-15.18 -3.24,-15.18 a 55.9,55.9 0 0 1 29.59,-31.32 c 2.92,-0.57 4,0.57 4,0.57 11.94,12.27 18.53,10.89 18.53,10.89 0.57,-0.57 0.89,0 0.89,0 0.73,1.79 -0.49,10.48 -0.49,10.48 11.7,-7.15 19.5,-30.75 19.5,-30.75 0.91,-3.1 0,-3.64 0,-3.64 -5.28,-7.47 -17.31,-18.4 -17.31,-18.4 a 85.26,85.26 0 0 1 18.8,9.74 c 1.09,-4.54 1.46,-16.65 1.46,-16.65 z m -143,-36.8 c 0,0 -11.5,-8.48 -30.46,-9.32 0,0 -2.48,-0.12 -2.48,1.88 0,0 -0.61,12.47 2.06,22.52 0,0 0.06,1.63 3.27,3.51 l 15.26,11.14 c 0,0 1.94,0.85 2.79,6.78 l 10.69,49.82 c 0,0 -14.26,-34.62 -24.66,-50.37 0,0 -9.92,-5.81 -14.5,-10.5 0,0 -8.57,-19.72 -3.29,-45.19 0,0 0.15,-1.28 3.3,-0.85 0,0 7.69,-2 36.63,13.62 0,0 21.8,-0.36 32.88,4.6 0.03,0 -23.82,-0.06 -31.45,2.36 z m 61.56,33.28 18.49,-2.9 c 0,0 4.9,-1.78 5.12,2.45 l -0.45,6.91 3.79,5.79 z"
           class="cls-2"
           inkscape:connector-curvature="0"
           style="fill:#ffffff" />
      </g>
    </g>
    <g
       id="miami"
       transform="matrix(0.06008557,0,0,0.06008557,185.78523,281.20731)"
       inkscape:transform-center-x="-35.814117"
       inkscape:transform-center-y="-22.45064">
      <path
         id="path5189"
         d="m 440.07,60.59 a 36.57,36.57 0 0 0 7,-12.25 C 448.78,42 449.58,26 433.61,21.49 c 2,3.47 6.22,12.2 1.08,23.76 a 16.09,16.09 0 0 0 -3.18,-6 c 2.36,8.35 -0.26,17 -5.79,23.9 4.19,-7.08 5.94,-17.51 -2.59,-30.51 C 419,25.93 403,13.55 383.54,22.27 c 5.38,1.12 22.2,4.31 25,17.43 a 27.47,27.47 0 0 0 -9.06,-2.21 c 10.72,4.65 17.06,13.45 18.77,23.06 -3.47,-8.56 -10.67,-17 -24.66,-17.11 -8.75,0.78 -24,7.07 -26.36,31.29 3.36,-4.44 8.77,-17.19 24.58,-14.06 -3.55,1.18 -5.79,4.08 -5.49,8.55 C 397,60.1 410.2,62 417.35,68.63 c -48.42,6.16 -81.3,45.33 -86.58,52 L 300,100.51 a 1.33,1.33 0 0 0 -1.84,0.38 l -13.45,20.55 q -4,-1.18 -8.08,-2.2 a 174.93,174.93 0 0 0 -71.27,-2.48 173.09,173.09 0 0 0 -66.35,25.41 180.52,180.52 0 0 0 -79.88,182.46 177.5,177.5 0 0 0 25.23,66.67 182.29,182.29 0 0 0 47.05,50.2 q 4.9,3.54 10,6.71 v 0 c 1.33,0.82 2.67,1.62 4,2.4 l 5.43,0.12 0.82,-0.42 36.85,-18.65 V 282.99 L 235.3,360.55 282.17,283 v 148.67 l 36.83,18.65 0.82,0.42 6.17,-0.13 c 1.1,-0.65 2.19,-1.33 3.28,-2 v 0 c 0.68,-0.42 1.38,-0.82 2.06,-1.26 a 178.89,178.89 0 0 0 78.09,-110.23 177.47,177.47 0 0 0 2.24,-71.26 180.65,180.65 0 0 0 -25.36,-67.44 187.34,187.34 0 0 0 -23.2,-29.65 L 374.76,151 a 1.33,1.33 0 0 0 -0.38,-1.84 L 344,129.25 c 33.13,-42.33 75.7,-52 75.7,-52 -2.21,11.47 -7.1,19.92 -20.89,21.35 1.32,1.71 5.15,2.46 9.21,0.92 -2.78,12.44 -26.17,11.69 -32.59,11 22.24,17.43 43.91,6 47.42,2.94 11.67,-12.49 9.64,-26 4.68,-35.93 6.26,9.47 7.91,22 2.46,34.46 a 31.61,31.61 0 0 0 5.91,-9 c 4.9,4.82 -3.73,29.09 -7.39,34.25 23.24,-7.91 25.62,-30.71 25.26,-39.73 -3,-17.64 -12.64,-25.06 -21.72,-27.74 10,1.45 19.54,7.08 24.09,16 a 8.83,8.83 0 0 0 -2.53,-7.94 c 11.28,0.93 14.54,16.72 15.55,21.22 C 480.78,66.39 446.22,60.09 440.07,60.59 Z M 104.31,317.1 a 142.09,142.09 0 0 1 1.41,-55.15 146,146 0 0 1 13.43,-36.32 q 2,-3.71 4.15,-7.28 c 1,-1.69 2.1,-3.36 3.21,-5 1.5,-2.21 3.07,-4.36 4.69,-6.47 l 9.67,11.44 h 0.43 l 0.11,140.43 v 33 a 144.69,144.69 0 0 1 -17.9,-23.16 140.17,140.17 0 0 1 -19.2,-51.49 z m 37.14,131.12 M 291.6,185.35 273,215.59 235.35,276.87 197.7,215.59 179.12,185.35 h -27.31 a 137.31,137.31 0 0 1 11.36,-8.55 123.58,123.58 0 0 1 49,-19.33 125.31,125.31 0 0 1 52.86,2.34 133.91,133.91 0 0 1 46.8,22.63 c 1.25,0.94 2.47,1.93 3.68,2.91 z m 37.71,263 15.82,-230 c 0.72,1.11 1.46,2.2 2.16,3.33 1.09,1.76 2.12,3.55 3.13,5.36 a 143,143 0 0 1 16.1,46.35 141.07,141.07 0 0 1 -22.35,103 132.91,132.91 0 0 1 -14.82,17.88 v -33 l 0.11,-143 h 0.43 l 8.25,-9.75 q 3.66,4.75 6.99,9.83 z"
         class="cls-1"
         inkscape:connector-curvature="0"
         style="fill:#af272f;fill-rule:evenodd" />
    </g>
    <g
       id="dallas"
       transform="matrix(0.06008557,0,0,0.06008557,64.017657,286.56967)">
      <g
         id="g5211">
        <path
           id="path5207"
           d="m 374.65,306.53 c -32.6,57.58 -57.37,45.72 -63.71,40.24 -1,-0.9 -1.93,-1.86 -1.93,-1.86 -9.69,-12.08 -1,-29.81 9.55,-42.06 60.24,-69.85 34,-168.76 34,-168.76 -9.11,51 -17,37.06 -17,37.06 -1.21,-2.63 1.2,-19.65 1.2,-19.65 -22.33,50.6 -62.32,65.71 -79.21,73.27 -55.5,24.82 -50.81,69.13 -50.81,69.13 18.34,-40.41 59.63,-50.46 59.63,-50.46 -20.75,15.71 -17.08,53.61 -19,91.45 C 242.72,429.17 163.14,465 163.14,465 385.84,430.22 374.65,306.53 374.65,306.53 Z"
           class="cls-1"
           inkscape:connector-curvature="0"
           style="fill:#0072ce" />
        <path
           id="path5209"
           d="M 248.68,213.53 C 376.45,164.17 326.68,15 326.68,15 311.44,98.81 265.18,121.94 228,138.49 73.18,207.39 142.92,342.34 142.92,342.34 133.16,251.93 240.55,216.67 248.68,213.53 Z"
           class="cls-1"
           inkscape:connector-curvature="0"
           style="fill:#0072ce" />
      </g>
    </g>
    <g
       id="g5249"
       transform="matrix(0.06008557,0,0,0.06008557,-116.35557,133.39309)">
      <path
         id="path5231"
         d="m 195.56,92.2 c 0,0 1.93,6.63 3,13 -3.36,5.69 -7.73,16 -12.7,26.5 -10.48,6.9 -15.45,10.48 -25.11,15.45 -2.48,15.73 2.48,40.57 27.05,52.16 -2.76,-3.86 -3.59,-7.17 -1.38,-9.66 2.21,-2.49 27.87,-39.19 31.18,-47.19 3.31,-8 4.69,-10.49 2.49,-14.07 C 216.3,122.15 195.56,92.2 195.56,92.2 Z"
         class="cls-1"
         inkscape:connector-curvature="0"
         style="fill:#161823" />
      <path
         id="path5233"
         d="m 304.42,92.2 c 0,0 -1.93,6.63 -3,13 3.36,5.69 7.73,16 12.7,26.5 10.48,6.9 15.45,10.48 25.11,15.45 2.48,15.73 -2.48,40.57 -27.05,52.16 2.76,-3.86 3.59,-7.17 1.38,-9.66 -2.21,-2.49 -27.87,-39.19 -31.18,-47.19 -3.31,-8 -4.69,-10.49 -2.48,-14.07 3.78,-6.24 24.52,-36.19 24.52,-36.19 z"
         class="cls-1"
         inkscape:connector-curvature="0"
         style="fill:#161823" />
      <polygon
         id="polygon5235"
         points="193.77,138.79 201.4,147.97 208.38,142.47 "
         class="cls-2"
         style="fill:#ffffff" />
      <polygon
         id="polygon5237"
         points="304.27,138.79 296.64,147.97 289.67,142.47 "
         class="cls-2"
         style="fill:#ffffff" />
      <path
         id="path5239"
         d="m 384.62,141.38 c 0,0 33.9,-61.7 -3.7,-92.52 -15.81,-15.2 -49.66,19.37 -49.66,19.37 z"
         class="cls-1"
         inkscape:connector-curvature="0"
         style="fill:#161823" />
      <path
         id="path5241"
         d="m 119.13,48.86 a 46.54,46.54 0 0 0 -11.55,13.91 l 9.93,14.35 -14.45,-2.41 c -7.38,30.72 12.36,66.67 12.36,66.67 l 53.37,-73.15 c 0,0 -33.85,-34.57 -49.66,-19.37 z"
         class="cls-1"
         inkscape:connector-curvature="0"
         style="fill:#161823" />
      <path
         id="path5243"
         d="m 292.19,193.51 a 283.16,283.16 0 0 0 -38.74,8.16 v -12.41 l 5.24,-5 a 42.69,42.69 0 0 1 11,-1.39 c 7,-0.1 16.28,-9 12.83,-21.9 -13.37,2.95 -32.56,6.77 -32.57,6.77 -0.01,0 -19.19,-3.82 -32.57,-6.77 -3.44,12.92 5.81,21.8 12.84,21.9 a 42.69,42.69 0 0 1 11,1.39 l 5.23,5 v 14.43 c -21.42,6.45 -41,14.63 -47.56,21.49 -1.22,1.27 52.31,-17.16 88.38,-17.6 7.48,4.84 14.56,16.28 14.56,16.28 a 66.33,66.33 0 0 0 -9.64,-30.35 z"
         class="cls-1"
         inkscape:connector-curvature="0"
         style="fill:#161823" />
      <path
         id="path5245"
         d="m 146.8,334.15 c 18.58,11.4 31.18,18.56 38.27,22.46 -6.48,-10.92 -11.3,-22.2 -13.57,-33 57.09,47.91 78.5,52.88 78.5,52.88 0,0 21.39,-5 78.48,-52.92 -2.27,10.84 -7.09,22.12 -13.57,33 7.09,-3.9 19.69,-11.06 38.27,-22.46 30.84,-18.93 72.56,-54.4 72.84,-82.4 C 424.91,233 421.39,210 417,194 c -6,54.12 -49.3,91.77 -71.34,102.28 0,0 5.89,-14.91 6.1,-25.87 C 290.82,325.46 250,333 250,333 c 0,0 -40.84,-7.53 -101.77,-62.54 0.21,11 6.1,25.87 6.1,25.87 C 132.26,285.81 88.94,248.16 83,194 c -4.44,16 -8,39 -9,57.75 0.24,28 42,63.47 72.8,82.4 z"
         class="cls-1"
         inkscape:connector-curvature="0"
         style="fill:#161823" />
      <path
         id="path5247"
         d="M 306.27,375.76 C 281.21,404.31 250,418.7 250,418.7 210.28,398.43 125.16,342.51 107,326.76 c -17.73,-15.41 -29.87,-34 -32.59,-51.31 -0.92,-5.82 -1,-14.21 -0.45,-23.7 0.28,28 42,63.47 72.84,82.4 18.58,11.4 31.18,18.56 38.27,22.46 -6.48,-10.92 -11.3,-22.2 -13.57,-33 57.09,47.91 78.5,52.88 78.5,52.88 0,0 21.39,-5 78.48,-52.92 -2.27,10.84 -7.09,22.12 -13.57,33 7.09,-3.9 19.69,-11.06 38.27,-22.46 30.84,-18.93 72.56,-54.4 72.84,-82.4 0.55,9.49 0.63,17.91 -0.45,23.7 -4,21.42 -26.52,70.82 -104.43,132.86 -38.47,30.4 -90.81,54 -96.17,56.69 29.93,-24.2 59.8,-50.82 81.3,-89.2 z"
         class="cls-3"
         inkscape:connector-curvature="0"
         style="fill:#b4926a" />
    </g>
  </g>
</svg>
